<?xml version="1.0" encoding="UTF-8"?>
<!DOCTYPE svg PUBLIC "-//W3C//DTD SVG 1.1//EN" "http://www.w3.org/Graphics/SVG/1.1/DTD/svg11.dtd">
<svg xmlns="http://www.w3.org/2000/svg" version="1.1" width="1200px" height="1200px" style="shape-rendering:geometricPrecision; text-rendering:geometricPrecision; image-rendering:optimizeQuality; fill-rule:evenodd; clip-rule:evenodd" xmlns:xlink="http://www.w3.org/1999/xlink">
<g><path style="opacity:1" fill="#65a1b9" d="M -0.5,-0.5 C 399.5,-0.5 799.5,-0.5 1199.5,-0.5C 1199.5,399.5 1199.5,799.5 1199.5,1199.5C 799.5,1199.5 399.5,1199.5 -0.5,1199.5C -0.5,799.5 -0.5,399.5 -0.5,-0.5 Z"/></g>
<g><path style="opacity:1" fill="#253b49" d="M 569.5,205.5 C 686.115,201.784 773.282,250.118 831,350.5C 862.343,413.584 869.01,479.251 851,547.5C 821.825,639.342 761.658,700.842 670.5,732C 560.514,760.554 466.681,733.721 389,651.5C 326.449,575.078 308.449,489.078 335,393.5C 361.293,316.535 411.46,261.035 485.5,227C 512.574,215.955 540.574,208.789 569.5,205.5 Z"/></g>
<g><path style="opacity:1" fill="#65a1b9" d="M 570.5,217.5 C 666.988,213.004 744.154,249.004 802,325.5C 856.304,407.135 863.971,493.135 825,583.5C 783.211,666.848 716.044,715.682 623.5,730C 531.391,738.645 454.891,708.478 394,639.5C 331.804,559.138 318.47,471.138 354,375.5C 388.623,298.541 446.457,248.375 527.5,225C 541.739,221.249 556.073,218.749 570.5,217.5 Z"/></g>
<g><path style="opacity:1" fill="#54869c" d="M 478.5,304.5 C 475.833,304.5 473.167,304.5 470.5,304.5C 470.5,308.833 470.5,313.167 470.5,317.5C 469.514,313.03 469.181,308.363 469.5,303.5C 472.713,303.19 475.713,303.523 478.5,304.5 Z"/></g>
<g><path style="opacity:1" fill="#253b48" d="M 478.5,304.5 C 582.366,310.315 662.866,356.315 720,442.5C 747.684,487.564 762.184,536.564 763.5,589.5C 763.5,592.167 763.5,594.833 763.5,597.5C 759.167,597.5 754.833,597.5 750.5,597.5C 746.422,488.126 697.422,405.959 603.5,351C 561.87,329.067 517.537,317.901 470.5,317.5C 470.5,313.167 470.5,308.833 470.5,304.5C 473.167,304.5 475.833,304.5 478.5,304.5 Z"/></g>
<g><path style="opacity:1" fill="#253b48" d="M 702.5,597.5 C 698.167,597.5 693.833,597.5 689.5,597.5C 689.813,593.958 689.479,590.625 688.5,587.5C 683.399,517.788 653.066,461.955 597.5,420C 559.277,393.76 516.944,380.26 470.5,379.5C 470.5,375.167 470.5,370.833 470.5,366.5C 548.94,368.468 611.774,400.468 659,462.5C 687.708,502.814 702.208,547.814 702.5,597.5 Z"/></g>
<g><path style="opacity:1" fill="#253b48" d="M 470.5,427.5 C 543.25,430.935 595.417,465.269 627,530.5C 635.783,551.966 640.283,574.299 640.5,597.5C 635.833,597.5 631.167,597.5 626.5,597.5C 625.557,542.775 602.89,499.608 558.5,468C 531.715,450.571 502.382,441.737 470.5,441.5C 470.5,436.833 470.5,432.167 470.5,427.5 Z"/></g>
<g><path style="opacity:1" fill="#253b49" d="M 470.5,489.5 C 516.336,491.988 549.503,513.655 570,554.5C 575.466,568.329 578.299,582.662 578.5,597.5C 573.833,597.5 569.167,597.5 564.5,597.5C 563.905,563.471 549.572,536.971 521.5,518C 505.79,508.371 488.79,503.538 470.5,503.5C 470.5,498.833 470.5,494.167 470.5,489.5 Z"/></g>
<g><path style="opacity:1" fill="#253b48" d="M 462.5,550.5 C 491.17,549.024 509.337,562.024 517,589.5C 519.151,617.335 506.984,635.502 480.5,644C 451.648,647.122 432.815,634.955 424,607.5C 421.213,577.81 434.046,558.81 462.5,550.5 Z"/></g>
<g><path style="opacity:1" fill="#65a1b9" d="M 465.5,564.5 C 493.415,565.576 505.582,579.909 502,607.5C 492.309,628.758 476.476,635.258 454.5,627C 440.508,618.392 435.008,605.892 438,589.5C 442.66,575.998 451.827,567.664 465.5,564.5 Z"/></g>
<g><path style="opacity:1" fill="#395869" d="M 688.5,587.5 C 689.479,590.625 689.813,593.958 689.5,597.5C 693.833,597.5 698.167,597.5 702.5,597.5C 698.03,598.486 693.363,598.819 688.5,598.5C 688.5,594.833 688.5,591.167 688.5,587.5 Z"/></g>
<g><path style="opacity:1" fill="#53859b" d="M 763.5,589.5 C 764.477,592.287 764.81,595.287 764.5,598.5C 759.637,598.819 754.97,598.486 750.5,597.5C 754.833,597.5 759.167,597.5 763.5,597.5C 763.5,594.833 763.5,592.167 763.5,589.5 Z"/></g>
<g><path style="opacity:1" fill="#3f6477" d="M 568.5,796.5 C 571.625,795.521 574.958,795.187 578.5,795.5C 578.737,796.791 578.404,797.791 577.5,798.5C 575.012,796.612 572.012,795.945 568.5,796.5 Z"/></g>
<g><path style="opacity:1" fill="#3f6578" d="M 605.5,796.5 C 608.962,795.518 612.629,795.185 616.5,795.5C 616.737,796.791 616.404,797.791 615.5,798.5C 612.663,796.598 609.329,795.931 605.5,796.5 Z"/></g>
<g><path style="opacity:1" fill="#3f6477" d="M 658.5,796.5 C 661.625,795.521 664.958,795.187 668.5,795.5C 668.737,796.791 668.404,797.791 667.5,798.5C 665.012,796.612 662.012,795.945 658.5,796.5 Z"/></g>
<g><path style="opacity:1" fill="#253c49" d="M 395.5,795.5 C 398.833,795.5 402.167,795.5 405.5,795.5C 404.598,810.19 403.765,824.857 403,839.5C 407.997,825.178 412.997,810.844 418,796.5C 421.455,795.209 424.955,795.209 428.5,796.5C 419.428,820.717 410.762,845.05 402.5,869.5C 398.833,869.5 395.167,869.5 391.5,869.5C 392.675,844.824 394.008,820.157 395.5,795.5 Z"/></g>
<g><path style="opacity:1" fill="#283f4d" d="M 442.5,802.5 C 441.596,803.209 441.263,804.209 441.5,805.5C 438.167,805.5 434.833,805.5 431.5,805.5C 431.911,802.447 432.577,799.447 433.5,796.5C 436.768,795.513 440.102,795.18 443.5,795.5C 443.326,797.861 442.993,800.194 442.5,802.5 Z"/></g>
<g><path style="opacity:1" fill="#253c49" d="M 568.5,796.5 C 572.012,795.945 575.012,796.612 577.5,798.5C 572.373,822.135 567.373,845.801 562.5,869.5C 559.102,869.82 555.768,869.487 552.5,868.5C 557.632,844.34 562.965,820.34 568.5,796.5 Z"/></g>
<g><path style="opacity:1" fill="#253c49" d="M 605.5,796.5 C 609.329,795.931 612.663,796.598 615.5,798.5C 610.479,821.435 605.646,844.435 601,867.5C 599.302,868.733 597.302,869.4 595,869.5C 593.167,869.167 591.333,868.833 589.5,868.5C 592.155,858.234 594.488,847.901 596.5,837.5C 593.5,837.5 590.5,837.5 587.5,837.5C 585.707,848.209 583.707,858.876 581.5,869.5C 577.774,869.823 574.107,869.489 570.5,868.5C 575.772,844.536 580.939,820.536 586,796.5C 589.394,795.544 592.894,795.211 596.5,795.5C 594.608,805.852 592.608,816.186 590.5,826.5C 593.5,826.5 596.5,826.5 599.5,826.5C 600.627,816.197 602.627,806.197 605.5,796.5 Z"/></g>
<g><path style="opacity:1" fill="#253c49" d="M 658.5,796.5 C 662.012,795.945 665.012,796.612 667.5,798.5C 665.682,805.092 664.516,811.759 664,818.5C 668.453,813.716 673.12,813.382 678,817.5C 676.391,833.812 673.057,849.812 668,865.5C 663.514,871.669 658.681,872.002 653.5,866.5C 652.614,867.325 652.281,868.325 652.5,869.5C 649.102,869.82 645.768,869.487 642.5,868.5C 647.632,844.335 652.966,820.335 658.5,796.5 Z"/></g>
<g><path style="opacity:1" fill="#253c49" d="M 707.5,795.5 C 731.945,793.382 738.778,803.382 728,825.5C 726.316,827.351 724.483,829.018 722.5,830.5C 726.346,835.496 727.512,841.162 726,847.5C 722.103,866.51 710.603,873.51 691.5,868.5C 696.731,844.104 702.064,819.77 707.5,795.5 Z"/></g>
<g><path style="opacity:1" fill="#253c49" d="M 743.5,795.5 C 746.833,795.5 750.167,795.5 753.5,795.5C 748.285,820.124 743.285,844.791 738.5,869.5C 735.167,869.5 731.833,869.5 728.5,869.5C 732.988,844.726 737.988,820.06 743.5,795.5 Z"/></g>
<g><path style="opacity:1" fill="#253c49" d="M 467.5,821.5 C 468.458,819.698 469.125,817.698 469.5,815.5C 471.042,814.837 472.709,814.17 474.5,813.5C 475.598,809.577 476.265,805.577 476.5,801.5C 479.833,801.5 483.167,801.5 486.5,801.5C 486.091,805.876 485.425,810.21 484.5,814.5C 486.924,814.192 489.257,814.526 491.5,815.5C 490.518,818.096 489.851,820.762 489.5,823.5C 486.606,823.042 484.106,823.709 482,825.5C 479.066,836.666 477.233,847.999 476.5,859.5C 478.167,859.5 479.833,859.5 481.5,859.5C 480.833,863.167 480.167,866.833 479.5,870.5C 467.065,871.528 462.565,865.862 466,853.5C 468.105,843.474 470.272,833.474 472.5,823.5C 470.219,823.923 468.552,823.256 467.5,821.5 Z"/></g>
<g><path style="opacity:1" fill="#497589" d="M 442.5,802.5 C 442.5,803.833 442.5,805.167 442.5,806.5C 438.629,806.815 434.962,806.482 431.5,805.5C 434.833,805.5 438.167,805.5 441.5,805.5C 441.263,804.209 441.596,803.209 442.5,802.5 Z"/></g>
<g><path style="opacity:1" fill="#629db4" d="M 715.5,806.5 C 717.722,806.178 719.556,806.845 721,808.5C 722.521,814.877 721.021,820.377 716.5,825C 714.975,826.009 713.308,826.509 711.5,826.5C 712.629,819.783 713.962,813.116 715.5,806.5 Z"/></g>
<g><path style="opacity:1" fill="#4d7b8f" d="M 465.5,814.5 C 465.735,813.903 466.235,813.57 467,813.5C 468.011,814.056 468.844,814.722 469.5,815.5C 469.125,817.698 468.458,819.698 467.5,821.5C 467.5,820.833 467.167,820.5 466.5,820.5C 466.821,819.183 467.154,817.849 467.5,816.5C 467.253,815.287 466.586,814.62 465.5,814.5 Z"/></g>
<g><path style="opacity:1" fill="#253c49" d="M 465.5,814.5 C 466.586,814.62 467.253,815.287 467.5,816.5C 467.154,817.849 466.821,819.183 466.5,820.5C 466.5,821.833 466.5,823.167 466.5,824.5C 461.365,823.426 457.532,825.093 455,829.5C 451.843,842.779 449.01,856.112 446.5,869.5C 443.167,869.5 439.833,869.5 436.5,869.5C 440.059,851.146 443.726,832.813 447.5,814.5C 450.833,814.5 454.167,814.5 457.5,814.5C 457.343,815.873 457.51,817.207 458,818.5C 460.185,816.46 462.685,815.126 465.5,814.5 Z"/></g>
<g><path style="opacity:1" fill="#253c49" d="M 538.5,814.5 C 549.65,812.158 554.483,816.492 553,827.5C 549.659,841.369 547.159,855.369 545.5,869.5C 541.833,869.5 538.167,869.5 534.5,869.5C 534.657,868.127 534.49,866.793 534,865.5C 525.918,873.28 521.085,871.78 519.5,861C 519.903,852.86 523.237,846.193 529.5,841C 533.75,838.626 537.916,836.126 542,833.5C 542.392,830.812 542.892,828.145 543.5,825.5C 542.079,821.724 540.245,821.724 538,825.5C 537.506,827.134 537.34,828.801 537.5,830.5C 534.167,830.5 530.833,830.5 527.5,830.5C 528.193,823.111 531.86,817.778 538.5,814.5 Z"/></g>
<g><path style="opacity:1" fill="#253c49" d="M 763.5,814.5 C 767.182,814.335 770.848,814.501 774.5,815C 776.286,815.785 777.786,816.951 779,818.5C 779.663,824.548 779.33,830.548 778,836.5C 776.797,846.268 774.131,855.601 770,864.5C 764.087,871.118 757.42,872.118 750,867.5C 747.66,863.445 746.993,859.111 748,854.5C 749.951,844.41 752.285,834.41 755,824.5C 756.978,820.362 759.811,817.029 763.5,814.5 Z"/></g>
<g><path style="opacity:1" fill="#253c4a" d="M 795.5,814.5 C 799.182,814.335 802.848,814.501 806.5,815C 808.286,815.785 809.786,816.951 811,818.5C 813.397,816.218 816.231,814.884 819.5,814.5C 819.296,817.518 818.963,820.518 818.5,823.5C 816.208,823.244 814.041,823.577 812,824.5C 810.961,833.073 808.961,841.406 806,849.5C 802.064,854.45 796.898,856.95 790.5,857C 788.606,858.079 788.273,859.413 789.5,861C 793.465,862.126 797.465,863.126 801.5,864C 808.189,868.073 809.356,873.573 805,880.5C 800.243,886.544 793.91,889.544 786,889.5C 781.594,889.365 777.594,888.031 774,885.5C 772.578,882.97 772.245,880.303 773,877.5C 775.511,874.657 778.344,872.157 781.5,870C 777.459,867.668 776.625,864.502 779,860.5C 781.016,858.316 783.183,856.316 785.5,854.5C 783.404,851.711 782.404,848.544 782.5,845C 783.255,835.939 785.755,827.439 790,819.5C 791.812,817.7 793.645,816.033 795.5,814.5 Z"/></g>
<g><path style="opacity:1" fill="#253c49" d="M 429.5,814.5 C 432.833,814.5 436.167,814.5 439.5,814.5C 435.45,832.749 431.783,851.083 428.5,869.5C 425.167,869.5 421.833,869.5 418.5,869.5C 422.037,851.148 425.704,832.815 429.5,814.5 Z"/></g>
<g><path style="opacity:1" fill="#253c4a" d="M 496.5,814.5 C 499.833,814.5 503.167,814.5 506.5,814.5C 503.5,829.832 500.5,845.166 497.5,860.5C 499.722,860.822 501.556,860.155 503,858.5C 506.481,843.893 509.648,829.226 512.5,814.5C 515.833,814.5 519.167,814.5 522.5,814.5C 518.631,832.778 514.965,851.112 511.5,869.5C 508.167,869.5 504.833,869.5 501.5,869.5C 501.657,868.127 501.49,866.793 501,865.5C 498.533,867.802 495.7,869.469 492.5,870.5C 490.617,870.124 489.117,869.124 488,867.5C 487.333,863.167 487.333,858.833 488,854.5C 490.943,841.175 493.777,827.842 496.5,814.5 Z"/></g>
<g><path style="opacity:1" fill="#253c49" d="M 619.5,814.5 C 623.226,814.177 626.893,814.511 630.5,815.5C 626.345,830.277 623.345,845.277 621.5,860.5C 623.903,860.607 625.736,859.607 627,857.5C 629.901,843.16 632.735,828.826 635.5,814.5C 638.833,814.5 642.167,814.5 645.5,814.5C 642.067,832.167 638.567,849.834 635,867.5C 631.851,869.362 628.351,870.029 624.5,869.5C 624.719,868.325 624.386,867.325 623.5,866.5C 620.607,869.122 617.274,870.288 613.5,870C 611.258,868.014 610.258,865.514 610.5,862.5C 613.718,846.526 616.718,830.526 619.5,814.5 Z"/></g>
<g><path style="opacity:1" fill="#629db4" d="M 766.5,822.5 C 769.243,822.077 770.576,823.244 770.5,826C 768.206,836.468 766.04,846.968 764,857.5C 762.994,860.89 760.994,861.89 758,860.5C 757.333,858.167 757.333,855.833 758,853.5C 759.667,845.167 761.333,836.833 763,828.5C 763.564,826.113 764.73,824.113 766.5,822.5 Z"/></g>
<g><path style="opacity:1" fill="#629cb4" d="M 797.5,823.5 C 798.833,823.5 800.167,823.5 801.5,823.5C 801.289,830.641 800.123,837.641 798,844.5C 795.636,849.656 793.802,849.656 792.5,844.5C 793.289,837.206 794.956,830.206 797.5,823.5 Z"/></g>
<g><path style="opacity:1" fill="#619bb2" d="M 663.5,823.5 C 665.635,823.147 666.968,823.98 667.5,826C 665.589,837.562 662.923,848.895 659.5,860C 658.207,860.49 656.873,860.657 655.5,860.5C 656.494,849.694 658.328,839.027 661,828.5C 661.366,826.548 662.199,824.882 663.5,823.5 Z"/></g>
<g><path style="opacity:1" fill="#629cb4" d="M 708.5,836.5 C 711.044,836.104 713.211,836.771 715,838.5C 716.035,844.515 715.035,850.182 712,855.5C 710.005,857.747 707.505,858.747 704.5,858.5C 705.963,851.187 707.296,843.854 708.5,836.5 Z"/></g>
<g><path style="opacity:1" fill="#629cb3" d="M 538.5,843.5 C 539.097,843.735 539.43,844.235 539.5,845C 538.614,849.151 537.78,853.318 537,857.5C 535.491,859.919 533.325,860.919 530.5,860.5C 529.699,853.105 532.366,847.439 538.5,843.5 Z"/></g>
<g><path style="opacity:1" fill="#639eb6" d="M 786.5,872.5 C 789.874,872.674 793.207,873.174 796.5,874C 797.761,877.446 796.428,879.446 792.5,880C 789.833,880.667 787.167,880.667 784.5,880C 782.84,876.777 783.506,874.277 786.5,872.5 Z"/></g>
</svg>
