<?xml version="1.0" standalone="no"?>
<!DOCTYPE svg PUBLIC "-//W3C//DTD SVG 20010904//EN"
 "http://www.w3.org/TR/2001/REC-SVG-20010904/DTD/svg10.dtd">
<svg version="1.0" xmlns="http://www.w3.org/2000/svg"
 width="1200.000000pt" height="1200.000000pt" viewBox="0 0 1200.000000 1200.000000"
 preserveAspectRatio="xMidYMid meet">
<metadata>
Created by potrace 1.14, written by Peter Selinger 2001-2017
</metadata>
<g transform="translate(0.000000,1200.000000) scale(0.100000,-0.100000)"
fill="#000000" stroke="none">
<path d="M5670 9930 c-199 -21 -453 -73 -565 -116 -22 -9 -47 -17 -55 -19 -8
-2 -46 -15 -85 -30 -357 -138 -662 -335 -919 -591 -201 -201 -305 -332 -438
-554 -66 -110 -168 -315 -168 -337 0 -5 -6 -19 -13 -33 -38 -73 -135 -408
-152 -525 -5 -38 -8 -60 -20 -130 -11 -67 -19 -217 -19 -340 0 -127 11 -332
18 -344 2 -3 7 -28 10 -56 8 -72 15 -111 32 -185 9 -36 17 -74 20 -84 2 -11
18 -65 35 -120 174 -563 507 -1032 983 -1384 246 -181 595 -355 842 -417 151
-39 339 -77 437 -88 120 -14 512 -16 617 -2 173 22 434 82 581 134 438 155
857 440 1140 776 19 22 41 47 49 55 76 75 252 346 332 510 68 141 154 360 174
445 3 11 6 25 8 30 1 6 7 26 14 45 14 42 48 214 57 289 4 30 8 61 10 70 15 78
22 443 11 536 -2 17 -7 59 -10 95 -4 36 -11 90 -16 120 -5 30 -11 67 -14 83
-3 15 -7 35 -10 45 -3 9 -7 28 -10 42 -3 14 -7 35 -10 48 -4 12 -8 30 -10 40
-12 49 -83 258 -122 355 -93 232 -266 513 -424 692 -72 81 -136 150 -166 180
-65 64 -151 141 -186 167 -20 15 -42 34 -50 41 -19 19 -224 159 -288 197 -241
143 -638 292 -870 326 -19 3 -42 7 -50 9 -8 2 -42 7 -75 11 -33 3 -69 8 -80
11 -37 8 -469 11 -545 3z m434 -114 c66 -4 122 -9 125 -10 3 -2 35 -7 71 -10
119 -12 414 -88 525 -135 11 -5 61 -25 110 -46 95 -39 237 -112 345 -178 55
-33 219 -150 257 -182 6 -5 33 -28 60 -50 48 -40 211 -201 269 -266 109 -121
266 -354 344 -509 101 -200 194 -449 217 -580 2 -14 8 -41 13 -60 13 -52 40
-233 48 -319 8 -99 8 -343 -1 -451 -19 -228 -83 -500 -170 -714 -136 -338
-328 -630 -577 -876 -106 -105 -115 -113 -248 -217 -139 -109 -336 -230 -468
-289 -32 -14 -72 -32 -89 -39 -122 -54 -237 -93 -380 -129 -99 -24 -132 -31
-210 -42 -22 -3 -46 -7 -53 -9 -7 -3 -45 -7 -85 -11 -40 -3 -83 -7 -97 -10
-34 -5 -308 -5 -394 1 -38 3 -112 12 -165 21 -53 9 -107 18 -121 20 -89 12
-366 92 -433 124 -23 11 -45 20 -49 20 -27 0 -411 202 -438 230 -3 3 -25 19
-50 35 -80 53 -253 196 -333 274 -109 106 -317 355 -317 379 0 5 -9 17 -20 27
-11 10 -20 24 -20 32 0 7 -4 13 -8 13 -5 0 -15 12 -23 28 -8 15 -16 29 -19 32
-25 25 -154 293 -202 420 -52 136 -83 243 -113 388 -43 211 -50 287 -50 522 0
176 6 278 20 365 6 33 33 178 39 211 10 48 49 190 58 207 5 10 11 26 13 35 15
76 154 379 229 502 61 100 58 95 161 234 77 104 283 324 380 407 193 164 477
335 710 427 180 72 427 139 570 156 28 4 66 9 85 11 19 3 82 8 140 11 58 4
106 7 107 8 3 3 113 -1 237 -8z"/>
<path d="M4709 8916 c0 -23 -2 -51 -3 -64 -2 -13 0 -25 4 -27 4 -2 51 -7 106
-10 379 -21 631 -76 969 -213 228 -92 474 -238 675 -402 126 -102 333 -307
415 -410 33 -41 63 -77 66 -80 4 -3 40 -54 81 -115 123 -182 236 -401 307
-593 36 -98 98 -298 107 -347 2 -11 11 -55 20 -98 27 -133 41 -253 49 -422 3
-60 7 -111 9 -113 3 -3 95 -5 121 -3 6 1 10 22 9 49 -4 96 -16 277 -19 282 -2
3 -6 34 -10 70 -4 36 -9 74 -11 85 -42 225 -86 385 -151 555 -109 281 -261
553 -430 765 -140 176 -338 377 -473 480 -36 28 -71 56 -79 63 -23 22 -183
128 -275 182 -115 68 -282 150 -386 190 -47 17 -94 36 -105 40 -76 31 -292 94
-365 106 -14 2 -36 7 -50 10 -41 9 -132 24 -185 30 -27 3 -77 9 -110 13 -33 5
-91 9 -130 10 -38 1 -89 3 -112 5 l-43 2 -1 -40z"/>
<path d="M4719 8333 c-12 -3 -14 -15 -11 -66 2 -34 6 -63 7 -65 2 -2 43 -5 92
-7 310 -14 583 -85 868 -225 109 -54 296 -168 350 -213 11 -9 38 -30 60 -47
65 -50 261 -247 325 -325 143 -177 278 -419 355 -635 49 -138 100 -344 110
-453 4 -32 8 -67 10 -78 2 -11 5 -63 6 -115 l3 -94 69 0 70 0 -6 123 c-4 67
-9 136 -11 152 -3 17 -7 48 -10 70 -3 22 -14 83 -25 135 -17 79 -31 129 -75
275 -2 6 -8 24 -15 40 -6 17 -19 50 -29 75 -9 25 -33 80 -54 123 -21 43 -38
79 -38 81 0 6 -88 155 -125 211 -104 157 -308 385 -455 505 -377 310 -840 496
-1310 526 -47 3 -98 6 -115 8 -16 1 -37 1 -46 -1z"/>
<path d="M4705 7659 c0 -76 -1 -75 85 -78 189 -6 424 -68 603 -157 116 -58
182 -100 285 -179 29 -22 147 -132 184 -171 238 -253 401 -646 409 -986 2 -74
-3 -70 74 -70 73 0 68 -9 61 105 -20 325 -123 611 -324 895 -83 118 -255 295
-338 348 -16 10 -31 21 -34 24 -22 23 -135 93 -256 158 -99 53 -347 133 -461
148 -26 3 -51 8 -54 10 -3 2 -55 6 -115 10 -60 3 -111 8 -114 9 -3 2 -5 -28
-5 -66z"/>
<path d="M4708 7033 l4 -70 46 -1 c43 -2 102 -9 145 -18 9 -2 26 -6 38 -9 75
-16 219 -84 308 -145 224 -151 392 -449 402 -712 3 -63 -1 -60 74 -60 70 0 67
-3 64 63 -5 130 -53 306 -113 424 -102 197 -286 380 -481 477 -76 38 -209 86
-265 94 -19 3 -38 8 -42 10 -4 3 -47 7 -95 11 l-88 5 3 -69z"/>
<path d="M4595 6476 c-204 -51 -353 -237 -356 -445 -2 -100 17 -174 68 -260
97 -166 327 -260 514 -211 123 32 260 141 308 245 91 193 57 400 -89 545 -120
119 -286 166 -445 126z m264 -166 c69 -37 118 -88 152 -159 18 -36 23 -64 23
-131 1 -101 -19 -153 -85 -225 -181 -196 -509 -105 -562 155 -44 215 115 404
334 396 63 -2 85 -8 138 -36z"/>
<path d="M3959 4011 c0 -14 -2 -39 -4 -56 -1 -16 -6 -84 -9 -150 -4 -66 -9
-147 -11 -180 -2 -33 -6 -114 -10 -180 -4 -66 -8 -124 -8 -130 -1 -5 23 -11
53 -13 l55 -3 130 357 c72 197 131 363 133 370 2 9 -11 12 -49 11 l-51 -2 -49
-140 c-27 -77 -52 -147 -56 -155 -3 -8 -7 -20 -9 -27 -14 -67 -50 -117 -40
-55 3 15 8 70 11 122 4 52 8 107 10 122 2 15 5 51 6 80 l3 52 -52 2 c-50 2
-52 1 -53 -25z"/>
<path d="M4332 3993 c-7 -25 -10 -48 -7 -51 10 -10 85 -9 94 2 5 6 11 29 13
51 l3 39 -46 2 -45 2 -12 -45z"/>
<path d="M5684 4026 c-3 -10 -62 -287 -89 -421 -9 -46 -54 -257 -60 -283 -5
-22 -3 -23 47 -20 l52 3 18 85 c9 47 19 96 22 110 2 14 25 120 49 235 49 226
59 274 58 290 -1 13 -92 14 -97 1z"/>
<path d="M5866 4021 c-7 -22 -42 -178 -52 -226 -4 -22 -8 -42 -9 -45 -1 -3 -5
-25 -10 -50 -5 -25 -9 -47 -10 -50 -3 -12 -26 -117 -29 -135 -11 -52 -35 -163
-41 -187 l-7 -28 56 0 c31 0 56 2 56 4 0 3 11 55 24 118 14 62 28 128 31 147
8 48 11 51 57 51 37 0 40 -2 35 -22 -4 -13 -19 -85 -35 -160 l-30 -138 53 0
c43 0 55 4 59 18 6 21 73 334 81 379 3 18 12 61 20 95 8 35 16 74 19 88 3 14
8 36 11 50 3 14 8 38 10 53 3 16 7 34 8 40 1 7 -18 12 -50 13 -41 2 -53 -1
-57 -14 -3 -9 -17 -73 -31 -142 -15 -69 -28 -131 -31 -137 -2 -8 -20 -13 -44
-13 -47 0 -46 -15 -5 165 34 149 35 143 -25 142 -36 0 -51 -4 -54 -16z"/>
<path d="M6585 4027 c-3 -7 -14 -57 -25 -112 -11 -55 -25 -118 -30 -140 -8
-35 -68 -316 -85 -400 -3 -16 -8 -40 -11 -52 -4 -21 -1 -23 45 -23 35 0 51 4
55 16 5 13 9 13 32 -5 15 -12 34 -21 44 -21 23 0 67 36 84 68 11 22 54 203 72
302 3 14 7 31 9 38 12 35 15 103 5 122 -19 36 -55 43 -101 19 -38 -19 -40 -19
-35 -2 7 24 44 193 42 194 0 1 -23 3 -49 5 -31 2 -49 -1 -52 -9z m89 -282 c3
-9 -1 -44 -9 -78 -14 -62 -22 -99 -31 -148 -18 -97 -29 -124 -53 -127 -23 -4
-23 -2 -18 45 3 26 15 89 26 138 11 50 22 102 25 117 10 58 46 89 60 53z"/>
<path d="M7075 4026 c-3 -10 -53 -240 -70 -321 -3 -16 -8 -39 -10 -51 -3 -11
-18 -83 -34 -161 -17 -77 -33 -152 -37 -167 l-6 -26 83 1 c109 0 163 20 206
77 61 81 84 232 43 284 -19 25 -19 25 2 44 34 31 68 91 74 131 3 21 7 48 9 60
8 50 -17 97 -64 123 -31 16 -191 21 -196 6z m129 -109 c34 -25 17 -129 -27
-166 -8 -6 -25 -14 -37 -16 -18 -4 -21 -1 -17 18 3 12 13 57 22 100 17 78 26
88 59 64z m-50 -320 c13 -36 -9 -129 -39 -161 -28 -30 -69 -36 -61 -8 3 9 12
51 21 92 26 127 23 120 48 111 12 -4 26 -20 31 -34z"/>
<path d="M7440 4020 c-4 -8 -10 -28 -13 -45 -4 -16 -25 -118 -48 -225 -23
-107 -43 -206 -45 -219 -3 -12 -12 -52 -20 -88 -8 -35 -17 -82 -20 -104 l-6
-39 51 0 c28 0 51 4 51 8 0 4 23 116 51 248 28 131 52 246 54 255 2 9 13 60
24 113 12 54 19 101 16 106 -9 15 -86 7 -95 -10z"/>
<path d="M4776 3970 c-3 -8 -7 -31 -11 -50 -12 -63 -16 -70 -40 -70 -24 0 -31
-12 -41 -65 -2 -14 0 -26 6 -26 5 -1 16 -2 23 -3 17 -2 16 -9 -30 -220 -27
-126 -27 -196 0 -223 20 -21 88 -28 110 -11 10 8 18 29 20 53 2 33 -1 40 -16
40 -21 0 -36 21 -31 44 1 9 17 84 35 168 l31 152 30 -1 c36 -1 44 7 52 55 l7
37 -36 0 c-30 0 -35 3 -31 18 12 39 25 107 21 111 -3 2 -25 4 -50 5 -33 1 -46
-3 -49 -14z"/>
<path d="M4655 3852 c-11 -2 -34 -15 -51 -27 l-31 -24 5 25 c4 23 2 24 -41 24
-25 0 -48 -4 -51 -9 -3 -5 -13 -42 -22 -82 -8 -41 -17 -81 -19 -89 -7 -34 -54
-257 -59 -280 -2 -14 -8 -40 -12 -57 l-6 -33 51 0 c28 0 51 3 52 8 2 20 77
368 85 394 5 17 69 52 82 44 16 -10 32 11 38 49 3 22 8 43 10 47 6 10 -8 15
-31 10z"/>
<path d="M5396 3845 c-50 -17 -84 -50 -108 -104 -23 -50 -18 -57 39 -56 33 1
40 6 58 41 25 49 51 52 48 6 -3 -67 -11 -80 -74 -113 -107 -57 -167 -157 -156
-257 8 -74 53 -92 114 -46 30 23 39 21 34 -8 0 -5 23 -8 52 -8 l53 0 11 68 c6
37 26 135 43 217 18 83 32 163 31 179 -4 75 -64 108 -145 81z m-6 -341 c-5
-27 -12 -59 -15 -71 -7 -30 -41 -48 -60 -33 -21 17 7 98 46 133 17 16 33 26
35 24 3 -2 0 -26 -6 -53z"/>
<path d="M7659 3850 c-55 -16 -101 -75 -119 -155 -7 -28 -13 -57 -15 -65 -21
-84 -45 -229 -41 -250 14 -90 110 -117 192 -55 42 32 65 79 79 163 3 19 14 71
24 115 44 188 31 238 -64 250 -16 2 -42 1 -56 -3z m39 -89 c16 -10 12 -40 -28
-224 -19 -89 -34 -135 -46 -144 -43 -31 -52 -2 -31 101 37 182 49 232 63 254
16 24 22 26 42 13z"/>
<path d="M7961 3843 c-49 -24 -86 -82 -106 -166 -26 -115 -29 -162 -12 -197
16 -30 15 -31 -19 -63 -43 -40 -52 -80 -24 -104 23 -20 26 -33 8 -33 -28 0
-70 -49 -73 -85 -6 -63 49 -95 154 -89 114 6 199 86 188 176 -7 55 -39 78
-132 93 -22 4 -43 12 -47 18 -10 16 11 37 38 37 84 0 144 68 168 190 3 14 8
39 12 55 6 26 9 47 13 76 1 4 13 9 29 12 22 5 30 14 38 46 6 22 9 43 7 45 -3
3 -23 -6 -46 -18 -40 -23 -42 -23 -67 -5 -37 26 -89 31 -129 12z m61 -100 c2
-10 -2 -43 -9 -73 -7 -30 -15 -64 -17 -75 -12 -57 -19 -74 -37 -78 -29 -8 -34
16 -21 83 24 114 42 160 62 160 10 0 20 -8 22 -17z m-47 -508 c0 -36 -81 -58
-126 -35 -16 9 -17 14 -7 33 20 39 37 45 87 32 34 -8 46 -16 46 -30z"/>
<path d="M4290 3798 c-6 -29 -14 -64 -16 -78 -3 -14 -11 -53 -19 -88 -8 -34
-17 -77 -20 -95 -3 -17 -10 -48 -15 -67 -8 -33 -14 -65 -26 -137 l-6 -33 50 0
49 0 47 223 c26 122 49 231 52 242 2 11 7 35 10 53 l6 32 -50 0 -50 0 -12 -52z"/>
<path d="M4967 3823 c-4 -16 -14 -62 -22 -103 -9 -41 -18 -82 -20 -91 -2 -9
-13 -61 -25 -115 -33 -150 -34 -167 -10 -197 27 -34 45 -34 94 -1 38 26 39 26
33 5 -5 -19 -1 -21 47 -21 l51 0 33 153 c18 83 34 161 36 172 2 11 14 63 25
115 12 52 21 98 21 102 0 4 -22 8 -49 8 -39 0 -51 -4 -55 -17 -2 -10 -24 -109
-47 -221 -34 -164 -46 -205 -62 -214 -38 -20 -38 6 -1 178 51 240 53 248 54
262 0 8 -16 12 -49 12 -45 0 -49 -2 -54 -27z"/>
<path d="M6206 3842 c-3 -5 -7 -21 -10 -37 -3 -16 -10 -51 -16 -79 -6 -28 -12
-60 -14 -71 -3 -11 -16 -73 -30 -138 -32 -144 -33 -180 -6 -207 26 -26 40 -25
84 5 34 23 36 23 36 5 0 -17 7 -20 50 -20 43 0 50 3 55 23 11 47 54 254 60
285 3 19 14 72 25 118 29 125 29 126 -27 122 -50 -3 -52 -7 -67 -88 -7 -35
-14 -69 -20 -88 -3 -9 -8 -30 -11 -47 -7 -45 -14 -75 -19 -93 -3 -9 -7 -35
-11 -57 -7 -46 -29 -85 -50 -85 -8 0 -15 8 -15 19 0 19 61 317 85 419 5 21 2
22 -44 22 -27 0 -52 -4 -55 -8z"/>
</g>
</svg>
